<mxfile host="app.diagrams.net" modified="2024-01-10T10:44:49.031Z" agent="Mozilla/5.0 (X11; Linux x86_64) AppleWebKit/537.36 (KHTML, like Gecko) Chrome/103.0.0.0 Safari/537.36" etag="3iHK_0OvMPJKlKvozc4z" version="22.1.18" type="device">
  <diagram name="第 1 页" id="5X8n9IljJMQ6WQE7cVaK">
    <mxGraphModel dx="1562" dy="833" grid="1" gridSize="10" guides="1" tooltips="1" connect="1" arrows="1" fold="1" page="1" pageScale="1" pageWidth="827" pageHeight="1169" math="0" shadow="0">
      <root>
        <mxCell id="0" />
        <mxCell id="1" parent="0" />
        <mxCell id="UCuAjMn4upB8j3flTEeC-30" value="" style="edgeStyle=orthogonalEdgeStyle;rounded=0;orthogonalLoop=1;jettySize=auto;html=1;" edge="1" parent="1" source="UCuAjMn4upB8j3flTEeC-3" target="UCuAjMn4upB8j3flTEeC-4">
          <mxGeometry relative="1" as="geometry" />
        </mxCell>
        <mxCell id="UCuAjMn4upB8j3flTEeC-61" style="edgeStyle=orthogonalEdgeStyle;rounded=0;orthogonalLoop=1;jettySize=auto;html=1;entryX=0.25;entryY=1;entryDx=0;entryDy=0;exitX=1;exitY=0.5;exitDx=0;exitDy=0;" edge="1" parent="1" source="UCuAjMn4upB8j3flTEeC-3" target="UCuAjMn4upB8j3flTEeC-54">
          <mxGeometry relative="1" as="geometry" />
        </mxCell>
        <mxCell id="UCuAjMn4upB8j3flTEeC-3" value="&lt;font style=&quot;font-size: 16px;&quot;&gt;PC&lt;/font&gt;" style="rounded=0;whiteSpace=wrap;html=1;" vertex="1" parent="1">
          <mxGeometry x="45" y="355" width="50" height="40" as="geometry" />
        </mxCell>
        <mxCell id="UCuAjMn4upB8j3flTEeC-33" value="instruction" style="edgeStyle=orthogonalEdgeStyle;rounded=0;orthogonalLoop=1;jettySize=auto;html=1;" edge="1" parent="1" source="UCuAjMn4upB8j3flTEeC-4" target="UCuAjMn4upB8j3flTEeC-32">
          <mxGeometry x="-0.1111" y="15" relative="1" as="geometry">
            <mxPoint as="offset" />
          </mxGeometry>
        </mxCell>
        <mxCell id="UCuAjMn4upB8j3flTEeC-4" value="&lt;font style=&quot;font-size: 16px;&quot;&gt;instruction memory&lt;/font&gt;" style="rounded=0;whiteSpace=wrap;html=1;labelPosition=center;verticalLabelPosition=top;align=center;verticalAlign=bottom;container=0;movable=1;resizable=1;rotatable=1;deletable=1;editable=1;locked=0;connectable=1;" vertex="1" parent="1">
          <mxGeometry x="170" y="90" width="80" height="570" as="geometry">
            <mxRectangle x="120" y="90" width="180" height="30" as="alternateBounds" />
          </mxGeometry>
        </mxCell>
        <mxCell id="UCuAjMn4upB8j3flTEeC-8" value="" style="endArrow=none;html=1;rounded=0;exitX=-0.005;exitY=0.049;exitDx=0;exitDy=0;exitPerimeter=0;entryX=1.005;entryY=0.05;entryDx=0;entryDy=0;entryPerimeter=0;movable=1;resizable=1;rotatable=1;deletable=1;editable=1;locked=0;connectable=1;" edge="1" parent="1">
          <mxGeometry width="50" height="50" relative="1" as="geometry">
            <mxPoint x="170" y="120" as="sourcePoint" />
            <mxPoint x="250" y="120" as="targetPoint" />
          </mxGeometry>
        </mxCell>
        <mxCell id="UCuAjMn4upB8j3flTEeC-9" value="" style="endArrow=none;html=1;rounded=0;exitX=-0.005;exitY=0.049;exitDx=0;exitDy=0;exitPerimeter=0;entryX=1.005;entryY=0.05;entryDx=0;entryDy=0;entryPerimeter=0;movable=1;resizable=1;rotatable=1;deletable=1;editable=1;locked=0;connectable=1;" edge="1" parent="1">
          <mxGeometry width="50" height="50" relative="1" as="geometry">
            <mxPoint x="170" y="150" as="sourcePoint" />
            <mxPoint x="250" y="150" as="targetPoint" />
          </mxGeometry>
        </mxCell>
        <mxCell id="UCuAjMn4upB8j3flTEeC-11" value="" style="endArrow=none;html=1;rounded=0;exitX=-0.005;exitY=0.049;exitDx=0;exitDy=0;exitPerimeter=0;entryX=1.005;entryY=0.05;entryDx=0;entryDy=0;entryPerimeter=0;movable=1;resizable=1;rotatable=1;deletable=1;editable=1;locked=0;connectable=1;" edge="1" parent="1">
          <mxGeometry width="50" height="50" relative="1" as="geometry">
            <mxPoint x="170" y="180" as="sourcePoint" />
            <mxPoint x="250" y="180" as="targetPoint" />
          </mxGeometry>
        </mxCell>
        <mxCell id="UCuAjMn4upB8j3flTEeC-12" value="" style="endArrow=none;html=1;rounded=0;exitX=-0.005;exitY=0.049;exitDx=0;exitDy=0;exitPerimeter=0;entryX=1.005;entryY=0.05;entryDx=0;entryDy=0;entryPerimeter=0;movable=1;resizable=1;rotatable=1;deletable=1;editable=1;locked=0;connectable=1;" edge="1" parent="1">
          <mxGeometry width="50" height="50" relative="1" as="geometry">
            <mxPoint x="170" y="210" as="sourcePoint" />
            <mxPoint x="250" y="210" as="targetPoint" />
          </mxGeometry>
        </mxCell>
        <mxCell id="UCuAjMn4upB8j3flTEeC-13" value="" style="endArrow=none;html=1;rounded=0;exitX=-0.005;exitY=0.049;exitDx=0;exitDy=0;exitPerimeter=0;entryX=1.005;entryY=0.05;entryDx=0;entryDy=0;entryPerimeter=0;movable=1;resizable=1;rotatable=1;deletable=1;editable=1;locked=0;connectable=1;" edge="1" parent="1">
          <mxGeometry width="50" height="50" relative="1" as="geometry">
            <mxPoint x="170" y="240" as="sourcePoint" />
            <mxPoint x="250" y="240" as="targetPoint" />
          </mxGeometry>
        </mxCell>
        <mxCell id="UCuAjMn4upB8j3flTEeC-14" value="" style="endArrow=none;html=1;rounded=0;exitX=-0.005;exitY=0.049;exitDx=0;exitDy=0;exitPerimeter=0;entryX=1.005;entryY=0.05;entryDx=0;entryDy=0;entryPerimeter=0;movable=1;resizable=1;rotatable=1;deletable=1;editable=1;locked=0;connectable=1;" edge="1" parent="1">
          <mxGeometry width="50" height="50" relative="1" as="geometry">
            <mxPoint x="170" y="270" as="sourcePoint" />
            <mxPoint x="250" y="270" as="targetPoint" />
          </mxGeometry>
        </mxCell>
        <mxCell id="UCuAjMn4upB8j3flTEeC-15" value="" style="endArrow=none;html=1;rounded=0;exitX=-0.005;exitY=0.049;exitDx=0;exitDy=0;exitPerimeter=0;entryX=1.005;entryY=0.05;entryDx=0;entryDy=0;entryPerimeter=0;movable=1;resizable=1;rotatable=1;deletable=1;editable=1;locked=0;connectable=1;" edge="1" parent="1">
          <mxGeometry width="50" height="50" relative="1" as="geometry">
            <mxPoint x="170" y="330" as="sourcePoint" />
            <mxPoint x="250" y="330" as="targetPoint" />
          </mxGeometry>
        </mxCell>
        <mxCell id="UCuAjMn4upB8j3flTEeC-16" value="" style="endArrow=none;html=1;rounded=0;exitX=-0.005;exitY=0.049;exitDx=0;exitDy=0;exitPerimeter=0;entryX=1.005;entryY=0.05;entryDx=0;entryDy=0;entryPerimeter=0;movable=1;resizable=1;rotatable=1;deletable=1;editable=1;locked=0;connectable=1;" edge="1" parent="1">
          <mxGeometry width="50" height="50" relative="1" as="geometry">
            <mxPoint x="170" y="360" as="sourcePoint" />
            <mxPoint x="250" y="360" as="targetPoint" />
          </mxGeometry>
        </mxCell>
        <mxCell id="UCuAjMn4upB8j3flTEeC-17" value="" style="endArrow=none;html=1;rounded=0;exitX=-0.005;exitY=0.049;exitDx=0;exitDy=0;exitPerimeter=0;entryX=1.005;entryY=0.05;entryDx=0;entryDy=0;entryPerimeter=0;movable=1;resizable=1;rotatable=1;deletable=1;editable=1;locked=0;connectable=1;" edge="1" parent="1">
          <mxGeometry width="50" height="50" relative="1" as="geometry">
            <mxPoint x="170" y="390" as="sourcePoint" />
            <mxPoint x="250" y="390" as="targetPoint" />
          </mxGeometry>
        </mxCell>
        <mxCell id="UCuAjMn4upB8j3flTEeC-18" value="" style="endArrow=none;html=1;rounded=0;exitX=-0.005;exitY=0.049;exitDx=0;exitDy=0;exitPerimeter=0;entryX=1.005;entryY=0.05;entryDx=0;entryDy=0;entryPerimeter=0;movable=1;resizable=1;rotatable=1;deletable=1;editable=1;locked=0;connectable=1;" edge="1" parent="1">
          <mxGeometry width="50" height="50" relative="1" as="geometry">
            <mxPoint x="170" y="420" as="sourcePoint" />
            <mxPoint x="250" y="420" as="targetPoint" />
          </mxGeometry>
        </mxCell>
        <mxCell id="UCuAjMn4upB8j3flTEeC-19" value="" style="endArrow=none;html=1;rounded=0;exitX=-0.005;exitY=0.049;exitDx=0;exitDy=0;exitPerimeter=0;entryX=1.005;entryY=0.05;entryDx=0;entryDy=0;entryPerimeter=0;movable=1;resizable=1;rotatable=1;deletable=1;editable=1;locked=0;connectable=1;" edge="1" parent="1">
          <mxGeometry width="50" height="50" relative="1" as="geometry">
            <mxPoint x="170" y="450" as="sourcePoint" />
            <mxPoint x="250" y="450" as="targetPoint" />
          </mxGeometry>
        </mxCell>
        <mxCell id="UCuAjMn4upB8j3flTEeC-20" value="" style="endArrow=none;html=1;rounded=0;exitX=-0.005;exitY=0.049;exitDx=0;exitDy=0;exitPerimeter=0;entryX=1.005;entryY=0.05;entryDx=0;entryDy=0;entryPerimeter=0;movable=1;resizable=1;rotatable=1;deletable=1;editable=1;locked=0;connectable=1;" edge="1" parent="1">
          <mxGeometry width="50" height="50" relative="1" as="geometry">
            <mxPoint x="170" y="480" as="sourcePoint" />
            <mxPoint x="250" y="480" as="targetPoint" />
          </mxGeometry>
        </mxCell>
        <mxCell id="UCuAjMn4upB8j3flTEeC-21" value="" style="endArrow=none;html=1;rounded=0;exitX=-0.005;exitY=0.049;exitDx=0;exitDy=0;exitPerimeter=0;entryX=1.005;entryY=0.05;entryDx=0;entryDy=0;entryPerimeter=0;movable=1;resizable=1;rotatable=1;deletable=1;editable=1;locked=0;connectable=1;" edge="1" parent="1">
          <mxGeometry width="50" height="50" relative="1" as="geometry">
            <mxPoint x="170" y="510" as="sourcePoint" />
            <mxPoint x="250" y="510" as="targetPoint" />
          </mxGeometry>
        </mxCell>
        <mxCell id="UCuAjMn4upB8j3flTEeC-22" value="" style="endArrow=none;html=1;rounded=0;exitX=-0.005;exitY=0.049;exitDx=0;exitDy=0;exitPerimeter=0;entryX=1.005;entryY=0.05;entryDx=0;entryDy=0;entryPerimeter=0;movable=1;resizable=1;rotatable=1;deletable=1;editable=1;locked=0;connectable=1;" edge="1" parent="1">
          <mxGeometry width="50" height="50" relative="1" as="geometry">
            <mxPoint x="170" y="540" as="sourcePoint" />
            <mxPoint x="250" y="540" as="targetPoint" />
          </mxGeometry>
        </mxCell>
        <mxCell id="UCuAjMn4upB8j3flTEeC-23" value="" style="endArrow=none;html=1;rounded=0;exitX=-0.005;exitY=0.049;exitDx=0;exitDy=0;exitPerimeter=0;entryX=1.005;entryY=0.05;entryDx=0;entryDy=0;entryPerimeter=0;movable=1;resizable=1;rotatable=1;deletable=1;editable=1;locked=0;connectable=1;" edge="1" parent="1">
          <mxGeometry width="50" height="50" relative="1" as="geometry">
            <mxPoint x="170" y="570" as="sourcePoint" />
            <mxPoint x="250" y="570" as="targetPoint" />
          </mxGeometry>
        </mxCell>
        <mxCell id="UCuAjMn4upB8j3flTEeC-24" value="" style="endArrow=none;html=1;rounded=0;exitX=-0.005;exitY=0.049;exitDx=0;exitDy=0;exitPerimeter=0;entryX=1.005;entryY=0.05;entryDx=0;entryDy=0;entryPerimeter=0;movable=1;resizable=1;rotatable=1;deletable=1;editable=1;locked=0;connectable=1;" edge="1" parent="1">
          <mxGeometry width="50" height="50" relative="1" as="geometry">
            <mxPoint x="170" y="600" as="sourcePoint" />
            <mxPoint x="250" y="600" as="targetPoint" />
          </mxGeometry>
        </mxCell>
        <mxCell id="UCuAjMn4upB8j3flTEeC-25" value="" style="endArrow=none;html=1;rounded=0;exitX=-0.005;exitY=0.049;exitDx=0;exitDy=0;exitPerimeter=0;entryX=1.005;entryY=0.05;entryDx=0;entryDy=0;entryPerimeter=0;movable=1;resizable=1;rotatable=1;deletable=1;editable=1;locked=0;connectable=1;" edge="1" parent="1">
          <mxGeometry width="50" height="50" relative="1" as="geometry">
            <mxPoint x="170" y="630" as="sourcePoint" />
            <mxPoint x="250" y="630" as="targetPoint" />
          </mxGeometry>
        </mxCell>
        <mxCell id="UCuAjMn4upB8j3flTEeC-26" value="" style="endArrow=none;html=1;rounded=0;exitX=-0.005;exitY=0.049;exitDx=0;exitDy=0;exitPerimeter=0;entryX=1.005;entryY=0.05;entryDx=0;entryDy=0;entryPerimeter=0;movable=1;resizable=1;rotatable=1;deletable=1;editable=1;locked=0;connectable=1;" edge="1" parent="1">
          <mxGeometry width="50" height="50" relative="1" as="geometry">
            <mxPoint x="170" y="300" as="sourcePoint" />
            <mxPoint x="250" y="300" as="targetPoint" />
          </mxGeometry>
        </mxCell>
        <mxCell id="UCuAjMn4upB8j3flTEeC-60" value="" style="edgeStyle=orthogonalEdgeStyle;rounded=0;orthogonalLoop=1;jettySize=auto;html=1;" edge="1" parent="1" source="UCuAjMn4upB8j3flTEeC-32" target="UCuAjMn4upB8j3flTEeC-34">
          <mxGeometry relative="1" as="geometry">
            <mxPoint x="490" y="375" as="targetPoint" />
          </mxGeometry>
        </mxCell>
        <mxCell id="UCuAjMn4upB8j3flTEeC-32" value="&lt;font style=&quot;font-size: 16px;&quot;&gt;decode&lt;/font&gt;" style="rounded=0;whiteSpace=wrap;html=1;" vertex="1" parent="1">
          <mxGeometry x="330" y="345" width="120" height="60" as="geometry" />
        </mxCell>
        <mxCell id="UCuAjMn4upB8j3flTEeC-62" style="edgeStyle=orthogonalEdgeStyle;rounded=0;orthogonalLoop=1;jettySize=auto;html=1;entryX=0.75;entryY=1;entryDx=0;entryDy=0;exitX=0.529;exitY=0;exitDx=0;exitDy=0;exitPerimeter=0;" edge="1" parent="1" source="UCuAjMn4upB8j3flTEeC-34" target="UCuAjMn4upB8j3flTEeC-54">
          <mxGeometry relative="1" as="geometry">
            <Array as="points">
              <mxPoint x="640" y="40" />
              <mxPoint x="53" y="40" />
            </Array>
          </mxGeometry>
        </mxCell>
        <mxCell id="UCuAjMn4upB8j3flTEeC-34" value="&lt;font style=&quot;font-size: 16px;&quot;&gt;Execution&lt;/font&gt;" style="swimlane;whiteSpace=wrap;html=1;" vertex="1" parent="1">
          <mxGeometry x="490" y="80" width="283" height="590" as="geometry" />
        </mxCell>
        <mxCell id="UCuAjMn4upB8j3flTEeC-1" value="&lt;font style=&quot;font-size: 16px;&quot;&gt;operand stack&lt;/font&gt;" style="rounded=0;whiteSpace=wrap;html=1;labelPosition=center;verticalLabelPosition=top;align=center;verticalAlign=bottom;" vertex="1" parent="UCuAjMn4upB8j3flTEeC-34">
          <mxGeometry x="23" y="150" width="80" height="390" as="geometry" />
        </mxCell>
        <mxCell id="UCuAjMn4upB8j3flTEeC-2" value="&lt;font style=&quot;font-size: 16px;&quot;&gt;object refrence&lt;br&gt;register&lt;br&gt;&lt;/font&gt;" style="rounded=0;whiteSpace=wrap;html=1;" vertex="1" parent="UCuAjMn4upB8j3flTEeC-34">
          <mxGeometry x="70" y="40" width="80" height="60" as="geometry" />
        </mxCell>
        <mxCell id="UCuAjMn4upB8j3flTEeC-5" value="&lt;font style=&quot;font-size: 16px;&quot;&gt;object&lt;br&gt;pool&lt;/font&gt;" style="rounded=0;whiteSpace=wrap;html=1;" vertex="1" parent="UCuAjMn4upB8j3flTEeC-34">
          <mxGeometry x="160" y="120" width="80" height="270" as="geometry" />
        </mxCell>
        <mxCell id="UCuAjMn4upB8j3flTEeC-6" value="&lt;font style=&quot;font-size: 16px;&quot;&gt;constant pool&lt;/font&gt;" style="rounded=0;whiteSpace=wrap;html=1;" vertex="1" parent="UCuAjMn4upB8j3flTEeC-34">
          <mxGeometry x="160" y="400" width="80" height="140" as="geometry" />
        </mxCell>
        <mxCell id="UCuAjMn4upB8j3flTEeC-37" value="" style="endArrow=none;html=1;rounded=0;exitX=-0.005;exitY=0.049;exitDx=0;exitDy=0;exitPerimeter=0;entryX=1.005;entryY=0.05;entryDx=0;entryDy=0;entryPerimeter=0;movable=1;resizable=1;rotatable=1;deletable=1;editable=1;locked=0;connectable=1;" edge="1" parent="UCuAjMn4upB8j3flTEeC-34">
          <mxGeometry width="50" height="50" relative="1" as="geometry">
            <mxPoint x="23" y="180" as="sourcePoint" />
            <mxPoint x="103" y="180" as="targetPoint" />
          </mxGeometry>
        </mxCell>
        <mxCell id="UCuAjMn4upB8j3flTEeC-38" value="" style="endArrow=none;html=1;rounded=0;exitX=-0.005;exitY=0.049;exitDx=0;exitDy=0;exitPerimeter=0;entryX=1.005;entryY=0.05;entryDx=0;entryDy=0;entryPerimeter=0;movable=1;resizable=1;rotatable=1;deletable=1;editable=1;locked=0;connectable=1;" edge="1" parent="UCuAjMn4upB8j3flTEeC-34">
          <mxGeometry width="50" height="50" relative="1" as="geometry">
            <mxPoint x="23" y="210" as="sourcePoint" />
            <mxPoint x="103" y="210" as="targetPoint" />
          </mxGeometry>
        </mxCell>
        <mxCell id="UCuAjMn4upB8j3flTEeC-39" value="" style="endArrow=none;html=1;rounded=0;exitX=-0.005;exitY=0.049;exitDx=0;exitDy=0;exitPerimeter=0;entryX=1.005;entryY=0.05;entryDx=0;entryDy=0;entryPerimeter=0;movable=1;resizable=1;rotatable=1;deletable=1;editable=1;locked=0;connectable=1;" edge="1" parent="UCuAjMn4upB8j3flTEeC-34">
          <mxGeometry width="50" height="50" relative="1" as="geometry">
            <mxPoint x="23" y="240" as="sourcePoint" />
            <mxPoint x="103" y="240" as="targetPoint" />
          </mxGeometry>
        </mxCell>
        <mxCell id="UCuAjMn4upB8j3flTEeC-40" value="" style="endArrow=none;html=1;rounded=0;exitX=-0.005;exitY=0.049;exitDx=0;exitDy=0;exitPerimeter=0;entryX=1.005;entryY=0.05;entryDx=0;entryDy=0;entryPerimeter=0;movable=1;resizable=1;rotatable=1;deletable=1;editable=1;locked=0;connectable=1;" edge="1" parent="UCuAjMn4upB8j3flTEeC-34">
          <mxGeometry width="50" height="50" relative="1" as="geometry">
            <mxPoint x="23" y="270" as="sourcePoint" />
            <mxPoint x="103" y="270" as="targetPoint" />
          </mxGeometry>
        </mxCell>
        <mxCell id="UCuAjMn4upB8j3flTEeC-41" value="" style="endArrow=none;html=1;rounded=0;exitX=-0.005;exitY=0.049;exitDx=0;exitDy=0;exitPerimeter=0;entryX=1.005;entryY=0.05;entryDx=0;entryDy=0;entryPerimeter=0;movable=1;resizable=1;rotatable=1;deletable=1;editable=1;locked=0;connectable=1;" edge="1" parent="UCuAjMn4upB8j3flTEeC-34">
          <mxGeometry width="50" height="50" relative="1" as="geometry">
            <mxPoint x="23" y="300" as="sourcePoint" />
            <mxPoint x="103" y="300" as="targetPoint" />
          </mxGeometry>
        </mxCell>
        <mxCell id="UCuAjMn4upB8j3flTEeC-42" value="" style="endArrow=none;html=1;rounded=0;exitX=-0.005;exitY=0.049;exitDx=0;exitDy=0;exitPerimeter=0;entryX=1.005;entryY=0.05;entryDx=0;entryDy=0;entryPerimeter=0;movable=1;resizable=1;rotatable=1;deletable=1;editable=1;locked=0;connectable=1;" edge="1" parent="UCuAjMn4upB8j3flTEeC-34">
          <mxGeometry width="50" height="50" relative="1" as="geometry">
            <mxPoint x="23" y="330" as="sourcePoint" />
            <mxPoint x="103" y="330" as="targetPoint" />
          </mxGeometry>
        </mxCell>
        <mxCell id="UCuAjMn4upB8j3flTEeC-43" value="" style="endArrow=none;html=1;rounded=0;exitX=-0.005;exitY=0.049;exitDx=0;exitDy=0;exitPerimeter=0;entryX=1.005;entryY=0.05;entryDx=0;entryDy=0;entryPerimeter=0;movable=1;resizable=1;rotatable=1;deletable=1;editable=1;locked=0;connectable=1;" edge="1" parent="UCuAjMn4upB8j3flTEeC-34">
          <mxGeometry width="50" height="50" relative="1" as="geometry">
            <mxPoint x="23" y="360" as="sourcePoint" />
            <mxPoint x="103" y="360" as="targetPoint" />
          </mxGeometry>
        </mxCell>
        <mxCell id="UCuAjMn4upB8j3flTEeC-44" value="" style="endArrow=none;html=1;rounded=0;exitX=-0.005;exitY=0.049;exitDx=0;exitDy=0;exitPerimeter=0;entryX=1.005;entryY=0.05;entryDx=0;entryDy=0;entryPerimeter=0;movable=1;resizable=1;rotatable=1;deletable=1;editable=1;locked=0;connectable=1;" edge="1" parent="UCuAjMn4upB8j3flTEeC-34">
          <mxGeometry width="50" height="50" relative="1" as="geometry">
            <mxPoint x="23" y="390" as="sourcePoint" />
            <mxPoint x="103" y="390" as="targetPoint" />
          </mxGeometry>
        </mxCell>
        <mxCell id="UCuAjMn4upB8j3flTEeC-45" value="" style="endArrow=none;html=1;rounded=0;exitX=-0.005;exitY=0.049;exitDx=0;exitDy=0;exitPerimeter=0;entryX=1.005;entryY=0.05;entryDx=0;entryDy=0;entryPerimeter=0;movable=1;resizable=1;rotatable=1;deletable=1;editable=1;locked=0;connectable=1;" edge="1" parent="UCuAjMn4upB8j3flTEeC-34">
          <mxGeometry width="50" height="50" relative="1" as="geometry">
            <mxPoint x="23" y="420" as="sourcePoint" />
            <mxPoint x="103" y="420" as="targetPoint" />
          </mxGeometry>
        </mxCell>
        <mxCell id="UCuAjMn4upB8j3flTEeC-46" value="" style="endArrow=none;html=1;rounded=0;exitX=-0.005;exitY=0.049;exitDx=0;exitDy=0;exitPerimeter=0;entryX=1.005;entryY=0.05;entryDx=0;entryDy=0;entryPerimeter=0;movable=1;resizable=1;rotatable=1;deletable=1;editable=1;locked=0;connectable=1;" edge="1" parent="UCuAjMn4upB8j3flTEeC-34">
          <mxGeometry width="50" height="50" relative="1" as="geometry">
            <mxPoint x="23" y="450" as="sourcePoint" />
            <mxPoint x="103" y="450" as="targetPoint" />
          </mxGeometry>
        </mxCell>
        <mxCell id="UCuAjMn4upB8j3flTEeC-47" value="" style="endArrow=none;html=1;rounded=0;exitX=-0.005;exitY=0.049;exitDx=0;exitDy=0;exitPerimeter=0;entryX=1.005;entryY=0.05;entryDx=0;entryDy=0;entryPerimeter=0;movable=1;resizable=1;rotatable=1;deletable=1;editable=1;locked=0;connectable=1;" edge="1" parent="UCuAjMn4upB8j3flTEeC-34">
          <mxGeometry width="50" height="50" relative="1" as="geometry">
            <mxPoint x="23" y="480" as="sourcePoint" />
            <mxPoint x="103" y="480" as="targetPoint" />
          </mxGeometry>
        </mxCell>
        <mxCell id="UCuAjMn4upB8j3flTEeC-48" value="" style="endArrow=none;html=1;rounded=0;exitX=-0.005;exitY=0.049;exitDx=0;exitDy=0;exitPerimeter=0;entryX=1.005;entryY=0.05;entryDx=0;entryDy=0;entryPerimeter=0;movable=1;resizable=1;rotatable=1;deletable=1;editable=1;locked=0;connectable=1;" edge="1" parent="UCuAjMn4upB8j3flTEeC-34">
          <mxGeometry width="50" height="50" relative="1" as="geometry">
            <mxPoint x="23" y="510" as="sourcePoint" />
            <mxPoint x="103" y="510" as="targetPoint" />
          </mxGeometry>
        </mxCell>
        <mxCell id="UCuAjMn4upB8j3flTEeC-50" value="" style="endArrow=classic;html=1;rounded=0;exitX=0.003;exitY=0.419;exitDx=0;exitDy=0;exitPerimeter=0;entryX=1.035;entryY=0.053;entryDx=0;entryDy=0;entryPerimeter=0;" edge="1" parent="UCuAjMn4upB8j3flTEeC-34" source="UCuAjMn4upB8j3flTEeC-6" target="UCuAjMn4upB8j3flTEeC-1">
          <mxGeometry width="50" height="50" relative="1" as="geometry">
            <mxPoint x="-47" y="380" as="sourcePoint" />
            <mxPoint x="3" y="330" as="targetPoint" />
          </mxGeometry>
        </mxCell>
        <mxCell id="UCuAjMn4upB8j3flTEeC-51" value="" style="endArrow=classic;startArrow=classic;html=1;rounded=0;entryX=0.855;entryY=-0.003;entryDx=0;entryDy=0;exitX=0.5;exitY=1;exitDx=0;exitDy=0;entryPerimeter=0;" edge="1" parent="UCuAjMn4upB8j3flTEeC-34" source="UCuAjMn4upB8j3flTEeC-2" target="UCuAjMn4upB8j3flTEeC-1">
          <mxGeometry width="50" height="50" relative="1" as="geometry">
            <mxPoint x="-47" y="380" as="sourcePoint" />
            <mxPoint x="3" y="330" as="targetPoint" />
          </mxGeometry>
        </mxCell>
        <mxCell id="UCuAjMn4upB8j3flTEeC-52" value="" style="endArrow=classic;html=1;rounded=0;exitX=0.413;exitY=0.001;exitDx=0;exitDy=0;exitPerimeter=0;entryX=1;entryY=0.5;entryDx=0;entryDy=0;" edge="1" parent="UCuAjMn4upB8j3flTEeC-34" source="UCuAjMn4upB8j3flTEeC-5" target="UCuAjMn4upB8j3flTEeC-2">
          <mxGeometry width="50" height="50" relative="1" as="geometry">
            <mxPoint x="170" y="469" as="sourcePoint" />
            <mxPoint x="116" y="181" as="targetPoint" />
          </mxGeometry>
        </mxCell>
        <mxCell id="UCuAjMn4upB8j3flTEeC-65" value="&lt;font style=&quot;font-size: 16px;&quot;&gt;&lt;br&gt;&lt;/font&gt;" style="text;html=1;strokeColor=none;fillColor=none;align=center;verticalAlign=middle;whiteSpace=wrap;rounded=0;" vertex="1" parent="UCuAjMn4upB8j3flTEeC-34">
          <mxGeometry x="165" y="340" width="70" height="40" as="geometry" />
        </mxCell>
        <mxCell id="UCuAjMn4upB8j3flTEeC-66" value="&lt;span style=&quot;font-size: 16px;&quot;&gt;string&lt;br&gt;literals&lt;br&gt;&lt;/span&gt;" style="rounded=0;whiteSpace=wrap;html=1;" vertex="1" parent="UCuAjMn4upB8j3flTEeC-34">
          <mxGeometry x="165" y="320" width="70" height="60" as="geometry" />
        </mxCell>
        <mxCell id="UCuAjMn4upB8j3flTEeC-54" value="" style="shape=trapezoid;perimeter=trapezoidPerimeter;whiteSpace=wrap;html=1;fixedSize=1;rotation=-180;fontSize=14;labelPosition=center;verticalLabelPosition=middle;align=center;verticalAlign=middle;labelBorderColor=none;" vertex="1" parent="1">
          <mxGeometry x="35" y="280" width="70" height="30" as="geometry" />
        </mxCell>
        <mxCell id="UCuAjMn4upB8j3flTEeC-57" value="" style="endArrow=classic;html=1;rounded=0;exitX=0.5;exitY=0;exitDx=0;exitDy=0;entryX=0.5;entryY=0;entryDx=0;entryDy=0;" edge="1" parent="1" source="UCuAjMn4upB8j3flTEeC-54" target="UCuAjMn4upB8j3flTEeC-3">
          <mxGeometry width="50" height="50" relative="1" as="geometry">
            <mxPoint x="44" y="718" as="sourcePoint" />
            <mxPoint x="-10" y="430" as="targetPoint" />
          </mxGeometry>
        </mxCell>
        <mxCell id="UCuAjMn4upB8j3flTEeC-63" value="&lt;font style=&quot;font-size: 14px;&quot;&gt;MUX&lt;/font&gt;" style="text;html=1;strokeColor=none;fillColor=none;align=center;verticalAlign=middle;whiteSpace=wrap;rounded=0;" vertex="1" parent="1">
          <mxGeometry x="40" y="280" width="60" height="30" as="geometry" />
        </mxCell>
      </root>
    </mxGraphModel>
  </diagram>
</mxfile>
